<svg width="27" height="27" viewBox="0 0 27 27" fill="none" xmlns="http://www.w3.org/2000/svg">
    <circle cx="13.5" cy="13.5" r="13" stroke="white"/>
    <ellipse cx="10.5" cy="14.3512" rx="6.5" ry="6.35123" fill="white"/>
    <path d="M10.3032 11.3797C9.29322 11.0916 8.24994 11.7307 7.97868 12.8006C7.82006 13.4276 7.96687 14.0617 8.31407 14.5404C7.56483 14.7753 6.94426 15.4018 6.72742 16.2575C6.3971 17.5654 7.13326 18.9145 8.36849 19.2646C8.56888 19.3213 8.77011 19.3486 8.96839 19.3486C9.99268 19.3486 10.9322 18.6238 11.2098 17.5275C11.4329 16.6442 11.1689 15.7435 10.5938 15.1433C11.0929 14.903 11.4928 14.4431 11.6456 13.8402C11.7772 13.3218 11.7093 12.7801 11.4557 12.3152C11.2026 11.8508 10.793 11.5181 10.3032 11.3797ZM10.3951 17.2966C10.1842 18.1295 9.37211 18.6251 8.58702 18.4023C7.80108 18.179 7.33238 17.3207 7.54247 16.4888C7.71923 15.7912 8.31744 15.3304 8.96965 15.3304C9.09579 15.3304 9.22404 15.3478 9.3506 15.3835C10.137 15.6068 10.6057 16.4651 10.3951 17.2966ZM10.8309 13.6093C10.6807 14.2037 10.0998 14.5569 9.53875 14.3984C8.97724 14.239 8.64313 13.6259 8.79331 13.0319C8.91987 12.5336 9.34722 12.204 9.81254 12.204C9.9024 12.204 9.99395 12.2165 10.0846 12.242C10.3572 12.3192 10.5846 12.5037 10.725 12.7622C10.8664 13.0208 10.9039 13.3213 10.8309 13.6093Z"
          fill="#1BC5BD"/>
    <path d="M11.9354 8.22264C10.1159 7.70105 8.21408 7.96452 6.57765 8.96482C4.92013 9.97763 3.73552 11.621 3.24236 13.5908C2.2303 17.6317 4.48096 21.8013 8.25922 22.8851C8.86966 23.0602 9.48938 23.1468 10.1053 23.1468C11.3254 23.1468 12.5302 22.8074 13.6174 22.1425C15.2749 21.1292 16.4591 19.4868 16.9522 17.517C17.9647 13.4756 15.7141 9.306 11.9354 8.22264ZM16.1368 17.2883C15.7018 19.0268 14.6573 20.4759 13.1955 21.3695C11.7552 22.2496 10.0808 22.4823 8.47985 22.0232C5.14794 21.0676 3.16431 17.3875 4.05783 13.8194C4.49278 12.0809 5.53732 10.6314 6.9991 9.73783C7.95632 9.15283 9.01647 8.85408 10.0897 8.85408C10.6318 8.85408 11.1773 8.92999 11.7143 9.0845C15.0467 10.0397 17.0303 13.7203 16.1368 17.2883Z"
          fill="white"/>
    <path d="M21.6496 11.5332C20.6253 8.80562 19.1673 6.12803 15.4663 5.01698C15.2435 4.94999 15.0094 5.08709 14.9457 5.32466C14.8824 5.56179 15.0124 5.80874 15.2364 5.87617C18.3991 6.82601 19.774 8.95656 20.8654 11.8628C20.9312 12.0378 21.0898 12.1446 21.2577 12.1446C21.3096 12.1446 21.3623 12.1343 21.4134 12.1129C21.6298 12.0222 21.7352 11.7628 21.6496 11.5332Z"
          fill="white"/>
</svg>