<svg width="1256" height="1286" viewBox="0 0 1256 1286" fill="none" xmlns="http://www.w3.org/2000/svg">
    <path opacity="0.12"
      d="M28.6956 426.797C4.06114 539.809 7.80015 768.404 219.831 778.679C484.87 791.523 582.471 284.366 553.659 188.834C524.848 93.3027 444.7 56.5762 348.616 96.9898C280.141 125.791 -31.0098 427.487 197.406 564.739C425.822 701.991 780.385 665.87 895.682 274.038C1004.28 -95.0206 1108.23 23.4567 1190.84 97.959C1373.93 263.086 1182.79 204.207 1274.54 358.003C1400.25 568.721 1117.3 412.423 1086.09 693.985C1069.44 844.189 1404.4 1083.07 1150.79 1146.06C964.321 1138.95 955.494 912.796 893.501 808.88C831.508 704.963 615.559 670.417 528.544 833.17C361.897 1082.88 651.102 1363.04 808.032 1235.6C964.962 1108.16 713.428 799.898 547.347 1056.78"
      stroke="#8dc971" stroke-width="36" stroke-linecap="round" />
</svg>
